<?xml version="1.0" encoding="UTF-8"?>
<svg id="Layer_1" xmlns="http://www.w3.org/2000/svg" version="1.1" xmlns:xlink="http://www.w3.org/1999/xlink" viewBox="0 0 317 460">
  <!-- Generator: Adobe Illustrator 29.7.1, SVG Export Plug-In . SVG Version: 2.1.1 Build 8)  -->
  <defs>
    <style>
      .st0 {
        fill: url(#linear-gradient2);
      }

      .st1 {
        fill: #e31956;
      }

      .st2 {
        fill: #fff;
        font-family: GreycliffCF-Heavy, 'Greycliff CF';
        font-size: 36.3px;
        font-weight: 800;
      }

      .st3 {
        fill: #f7ba49;
      }

      .st4 {
        fill: url(#linear-gradient1);
      }

      .st5 {
        fill: url(#linear-gradient9);
      }

      .st6 {
        fill: url(#linear-gradient8);
      }

      .st7 {
        fill: none;
      }

      .st8 {
        fill: #ef9322;
      }

      .st9 {
        fill: #ea088b;
      }

      .st10 {
        fill: url(#linear-gradient7);
      }

      .st11 {
        fill: #00aaa6;
      }

      .st12 {
        fill: url(#linear-gradient4);
      }

      .st13 {
        fill: url(#linear-gradient5);
      }

      .st14 {
        fill: url(#linear-gradient3);
      }

      .st15 {
        fill: url(#linear-gradient6);
      }

      .st16 {
        fill: url(#linear-gradient);
      }
    </style>
    <linearGradient id="linear-gradient" x1="114.6" y1="213.3" x2="180.6" y2="213.3" gradientUnits="userSpaceOnUse">
      <stop offset="0" stop-color="#e31956"/>
      <stop offset="1" stop-color="#f7ba49"/>
    </linearGradient>
    <linearGradient id="linear-gradient1" x1="125" y1="241.2" x2="150.2" y2="241.2" xlink:href="#linear-gradient"/>
    <linearGradient id="linear-gradient2" x1="140.5" y1="300.4" x2="190" y2="300.4" gradientUnits="userSpaceOnUse">
      <stop offset="0" stop-color="#e31956"/>
      <stop offset="1" stop-color="#f7ba49"/>
    </linearGradient>
    <linearGradient id="linear-gradient3" x1="114.7" y1="313.7" x2="149.9" y2="313.7" gradientUnits="userSpaceOnUse">
      <stop offset="0" stop-color="#e31956"/>
      <stop offset="1" stop-color="#f7ba49"/>
    </linearGradient>
    <linearGradient id="linear-gradient4" x1="213" y1="326.1" x2="250.6" y2="260.8" gradientUnits="userSpaceOnUse">
      <stop offset="0" stop-color="#00aaa6"/>
      <stop offset=".5" stop-color="#97559a"/>
      <stop offset="1" stop-color="#9a5098"/>
    </linearGradient>
    <linearGradient id="linear-gradient5" x1="47.6" y1="333.4" x2="105.3" y2="233.6" gradientUnits="userSpaceOnUse">
      <stop offset="0" stop-color="#4c3285"/>
      <stop offset="1" stop-color="#f7ba49"/>
    </linearGradient>
    <linearGradient id="linear-gradient6" x1="65.9" y1="347.5" x2="127.2" y2="241.3" gradientUnits="userSpaceOnUse">
      <stop offset=".2" stop-color="#4c3285"/>
      <stop offset="1" stop-color="#f7ba49"/>
    </linearGradient>
    <linearGradient id="linear-gradient7" x1="177.2" y1="331" x2="252.7" y2="200.2" gradientUnits="userSpaceOnUse">
      <stop offset="0" stop-color="#00aaa6"/>
      <stop offset="1" stop-color="#9a5098"/>
    </linearGradient>
    <linearGradient id="linear-gradient8" x1="5.5" y1="141" x2="148.2" y2="141" gradientUnits="userSpaceOnUse">
      <stop offset="0" stop-color="#ea088b"/>
      <stop offset="1" stop-color="#fff"/>
    </linearGradient>
    <linearGradient id="linear-gradient9" x1="2606.2" y1="141.1" x2="2748.9" y2="141.1" gradientTransform="translate(2916.4) rotate(-180) scale(1 -1)" xlink:href="#linear-gradient8"/>
  </defs>
  <text class="st2" transform="translate(98.8 407.2)"><tspan x="0" y="0">PEOPLE </tspan><tspan x="-63.1" y="43.5">DEVELOPMENT</tspan></text>
  <path class="st8" d="M129.6,163.6c0,0,.1,0,.2.1,0,0-.1,0-.2-.1h0Z"/>
  <g>
    <path class="st16" d="M180.4,278.1c0,1.1,0,2.1.2,3.2-11.4-14.8-22.3-16.2-30.7-13.3.2-2.8.3-5.6.3-8.4,0-4.6-.3-8.9-1-12.9-3.9-22.3-16-36.8-21.4-42.4-1.7-1.7-2.7-2.6-2.7-2.6-1.3-2.6-2.6-4.9-3.9-6.9-9.5-14-7.1-52.2-1.9-49.5,0,0,3.4,32.5,21.3,47.7,18,15.2,38.4,28.1,39.8,85Z"/>
    <path class="st4" d="M150.2,259.6c0,2.7,0,5.5-.3,8.4-10,3.4-16.6,12.8-16.6,12.8,2.5-9.3,4.5-18.2,5.1-23.4,1.3-12.6-5.3-39.4-13.3-55.6,0,0,1,.9,2.7,2.6,5.4,5.6,17.5,20.1,21.4,42.4.7,4,1,8.4,1,12.9Z"/>
  </g>
  <g>
    <path class="st0" d="M180.6,281.3c2.5,47.1,10.9,51.8,9.2,52.7-1.8.9-35.3-39.6-35.3-39.6,0,0-6.4,11-14,23.9l9.4-50.4c8.4-2.8,19.3-1.4,30.7,13.3Z"/>
    <path class="st14" d="M149.9,267.9l-9.4,50.4c-11,18.5-24.5,41.1-25.5,41.1-1.7,0,8.2-43.8,8.2-43.8,0,0,5.7-18.1,10.1-35,0,0,6.6-9.4,16.6-12.8Z"/>
  </g>
  <circle class="st3" cx="77.3" cy="217.7" r="16.7"/>
  <circle class="st11" cx="225.9" cy="213.3" r="16.7"/>
  <circle class="st1" cx="161.7" cy="173.4" r="16.7"/>
  <path class="st12" d="M217.2,241.5s15.2,10.8,26.8,43.5c0,0,6.9,23.2,2.8,59.5s-1.1.8-1.3.2c-1.3-3.7-3.9-10.2-7.5-14.5"/>
  <path class="st13" d="M69.3,300.1c1.2-8.9,9.8-29.4,4.3-40.2-4.7-9.2-21.6-19.2-26.5-21.9-.7-.4-1-1.3-.6-2.1h0c.4-.8,1.4-1,2.2-.6,24.9,14.6,48.9,1.6,54.6-1.9.8-.5,1.9-.2,2.3.8,1.4,3.9-1.7,10.3-2.6,13-1.7,4.7-7,8.5-8.7,9.7s-.8.3-1.2.2c-10.9-1.9-8.6,9-8,11.2,0,.2.2.5.4.7,9.7,10.2,11.9,25.8,12.2,28.4s.1.4.2.6c1.3,2.1,9.3,15.8,6.5,33.3-1.5,9.6-10,19.8-15.4,26-.5,1.2,0-24.7.3-26.8.4-3.6-2.4-4.7-4.6-2.5-5,5.5-8.4,9-10.8,11.6-.8.9-2.4.5-2.6-.7-3-12.6-2.9-30.5-1.8-38.8Z"/>
  <path class="st15" d="M103.4,233.3c0,0,.2-.2.3-.2,5.7-5,14,1.6,10.4,8.2s-7.2,10.9-13.2,15.3c0,0-7.5,4.9-3.2,15.1,4,9.4,7,21.1,7.4,22.9,0,.1,0,.3.1.4.8,2.4,9.7,31.5-16,64.8-.6.8-2,.4-2-.7,0-6.1.4-19.7,1.6-26.7.2-1,.6-2,1.2-2.8,2.9-3.9,12-18.1,7.4-31.6,0-.2-.1-.4-.2-.5-.5-2.3-4.5-18.8-11.6-27.1-1-1.1-1.5-2.5-1.7-3.9-.3-3.7.2-10.1,7-9.9s3.9-.7,5.2-2.2l4.6-5.2c1.3-1.5,1.9-3.5,1.7-5.4-.1-.9-.4-2-.8-3-1.2-2.6-.4-5.7,1.8-7.6Z"/>
  <path class="st10" d="M204.9,178.4l1.8-2.6c.7-1,2.2-1.1,3.1-.2h0c.8.8.9,2,.5,2.9-3.8,7.9-18.9,43.4,6.9,63.1,1,.8,1.7,1.8,2,3l10.6,37.8c.3,1.2.8,2.3,1.4,3.4,2.2,3.7,7.4,13.3,7.8,19.1.4,7.3-1,25.2-1,25.2l-5.6-8.3s-.8-1.2-2,0c-1.1,1.1-7.8,19.6-7.9,33.7s-1.4,1.3-1.7.3l-7.3-18c-2.1-5.1-3.1-10.5-3.2-16,0-6.6.6-15.4,3.6-22.1,5.5-12.3-2.5-38.9-7.4-46-4.9-7.2-16-19.5-12.8-39.7,3.2-20.2,11.2-35.8,11.2-35.8Z"/>
  <path class="st7" d="M181.3,92c0-.2-.1-.3-.1-.5-.8-2.5-1.7-5.1-2.5-7.6-1.4-4.6-2.6-9.2-2.7-14,0-1.6.1-3.1.7-4.5.9-2.5,2.6-4.5,4.5-6.4,2.3-2.3,5-4.2,7.7-6.1,2-1.4,4-2.9,6-4.4.2-.1.3-.3.5-.5-.1,0-.2,0-.2,0-1.6,0-3.1,0-4.7,0-1.4,0-2.9,0-4.3-.1-1,0-2.1-.1-3.1-.2-1.5-.1-3-.2-4.5-.4-1.8-.2-3.5-.5-5.3-.9-2.1-.4-3.9-1.5-5.1-3.3-.9-1.2-1.7-2.5-2.5-3.8-3-5.3-5.3-11-7.2-16.8,0-.3-.2-.5-.3-.9-.1.3-.2.4-.2.5-.3,1-.6,2.1-1,3.1-1.2,3.9-2.5,7.9-3.8,11.8-.7,2-1.6,4-2.8,5.8-.8,1.1-1.8,1.9-3.1,2.3-2.2.7-4.4,1-6.7,1.1-1.3,0-2.6.1-3.9.2-1.6,0-3.1,0-4.7,0-1.1,0-2.2,0-3.3,0-1.6,0-3.2.1-4.9.2-.4,0-.8,0-1.3,0,0,0,0,0,0,.1.2.2.5.4.7.6,3.7,2.7,7.4,5.5,11,8.2,2.4,1.9,4.7,3.9,6.6,6.3,1.9,2.5,2.6,5.3,2.4,8.4,0,.7-.1,1.4-.2,2.1-.4,2-.6,4-1.1,5.9-1.1,4-2.3,7.9-3.5,11.9-.1.5-.3.9-.4,1.4,0,0,0,0,.1,0,.3-.2.6-.5.9-.7,3.3-2.7,6.5-5.4,10.1-7.7,2.3-1.5,4.6-2.9,7.2-3.9,2.2-.8,4.4-.9,6.6.1,1.5.7,3,1.4,4.5,2.3,4.9,2.8,9.4,6.1,13.8,9.7.1,0,.2.1.4.3Z"/>
  <g>
    <path class="st6" d="M114,103.3c-.6-2.7-.9-5.4-.7-8.4,0-.3,0-.6,0-.8,0-1,0-2.1.2-3.3.2-1.7.4-3.4.7-5.1.3-1.9.8-4.5,1.3-7.1.3-1.3.5-2.5.8-3.7-3.2-2.4-6.3-5-9.2-7.8-4-3.9-6.8-7.2-9-11-1.1-1.9-2.6-4.7-3.3-8.4L5.5,234.4l125.5-117.1c-4-.1-7.8-1.5-10.8-3.9-4.6-3.7-5.8-8.6-6.2-10.2Z"/>
    <path class="st5" d="M220.7,49.2c-1,4.3-3.1,7.5-4.6,9.6-2.2,3.1-4.9,6-8,8.7-2.1,1.9-4.2,3.7-6.3,5.5h0c1.1,4.5,2.2,9,3,13.8.4,2.5.6,5,.8,7.1.2,1.8.2,3.7,0,5.5-.1,2.2-.5,5.5-2.1,9-2.9,6.2-8.7,10-15.7,10.1h-.2c-.6,0-1.2,0-1.8,0l124.4,116L221.1,47.7c0,.4-.2.8-.3,1.2,0,.1,0,.2,0,.3Z"/>
    <path class="st9" d="M179.9,104.4c2.5,1.1,5,1.9,7.8,1.9s0,0,.1,0c2.2,0,3.9-.9,4.8-3,.7-1.5.9-3.1,1-4.7,0-1.2,0-2.4,0-3.7-.2-2.1-.4-4.2-.7-6.3-.8-4.8-2-9.5-3.1-14.2-.4-1.8-.8-3.6-1.2-5.4,0-.4,0-.7.4-1,.5-.3.9-.7,1.3-1.1,3.3-2.8,6.7-5.6,9.9-8.5,2.3-2,4.4-4.3,6.2-6.8,1.2-1.6,2.2-3.4,2.7-5.4,0-.2.1-.5.2-.7,0-.3,0-.6,0-1,0,0,0-.2,0-.3,0-1.3-.6-2.4-1.4-3.4-.9-1-2-1.7-3.2-2.2-2.4-1.1-5-1.7-7.6-2.1-2.7-.4-5.4-.7-8-.9-2.3-.2-4.6-.3-6.9-.4-1.1,0-2.1,0-3.2,0s-.4,0-.6,0c0,0,0,0,0,0-.5,0-.8-.2-1-.7-2-4.9-4-9.8-6.4-14.5-1.8-3.6-3.8-7.1-6.3-10.2-1-1.2-2.1-2.4-3.4-3.3-1-.7-2-1.1-3.1-1.1s-.9,0-1.3.2c-1.2.4-2.3,1.2-3.2,2.1-1.9,1.9-3.2,4.1-4.5,6.4-2.2,4.1-3.9,8.3-5.3,12.7-.8,2.3-1.4,4.5-2.1,6.8,0,.2,0,.5-.4.5s0,0,0,0c-.1,0-.2,0-.3,0-.4,0-.8,0-1.2,0-1,0-2,0-3.1,0-1.6,0-3.2.1-4.8.2-1.5,0-3.1.1-4.6.2-1.9.1-3.8.3-5.6.5-2.7.3-5.4.8-8,1.7-2,.7-3.8,1.5-5.3,3-1.4,1.5-1.9,3.3-1.7,5.3.2,1.7.9,3.2,1.8,4.6,1.9,3.2,4.4,5.9,7,8.4,4.3,4.2,9.1,7.9,14.2,11,.2.1.3.3.2.6-.3,1.4-.7,2.8-1,4.2-.5,2.3-1.1,4.7-1.6,7-.5,2.2-.8,4.5-1.2,6.7-.2,1.4-.4,2.9-.6,4.3-.1,1.2-.1,2.3-.2,3.5,0,1.7,0,3.4.4,5.1.3,1.3.8,2.6,1.9,3.4,1.2,1,2.6,1.3,4.1,1.3s.7,0,1,0c2.2-.2,4.2-.9,6.2-1.8,4.2-1.8,8-4.2,11.7-6.8,2.6-1.8,5.1-3.6,7.7-5.5.1,0,.2-.1.4-.1s.2,0,.3.1c3.1,2.5,6.3,4.8,9.6,7,3.6,2.4,7.3,4.6,11.3,6.3ZM162.6,79.7c-1.1-.5-2.2-.8-3.3-.8s-2.2.2-3.3.6c-2.6,1-4.9,2.3-7.2,3.9-3.5,2.3-6.8,5-10.1,7.7-.3.3-.6.5-.9.7,0,0,0,0-.1,0,.1-.5.3-.9.4-1.4,1.2-4,2.4-7.9,3.5-11.9.5-1.9.8-3.9,1.1-5.9.1-.7.2-1.4.2-2.1.2-3.1-.5-5.9-2.4-8.4-1.9-2.4-4.1-4.5-6.6-6.3-3.6-2.8-7.3-5.5-11-8.2-.2-.2-.5-.4-.7-.6,0,0,0,0,0-.1.4,0,.8,0,1.3,0,1.6,0,3.2-.1,4.9-.2,1.1,0,2.2,0,3.3,0,1.6,0,3.1,0,4.7,0,1.3,0,2.6,0,3.9-.2,2.3-.2,4.5-.4,6.7-1.1,1.3-.4,2.3-1.2,3.1-2.3,1.2-1.8,2.1-3.7,2.8-5.8,1.3-3.9,2.5-7.9,3.8-11.8.3-1,.6-2.1,1-3.1,0-.1.1-.3.2-.5.1.4.2.6.3.9,1.9,5.8,4.2,11.5,7.2,16.8.7,1.3,1.6,2.5,2.5,3.8,1.2,1.8,3,2.8,5.1,3.3,1.7.4,3.5.7,5.3.9,1.5.2,3,.3,4.5.4,1,0,2.1.2,3.1.2,1.4,0,2.9,0,4.3.1,1.6,0,3.1,0,4.7,0,0,0,.1,0,.2,0-.2.2-.3.3-.5.5-2,1.5-4,2.9-6,4.4-2.7,1.9-5.3,3.8-7.7,6.1-1.9,1.8-3.5,3.9-4.5,6.4-.5,1.5-.7,3-.7,4.5.1,4.8,1.3,9.4,2.7,14,.8,2.6,1.7,5.1,2.5,7.6,0,.1,0,.2.1.5-.2-.1-.3-.2-.4-.3-4.4-3.6-8.9-6.9-13.8-9.7-1.4-.8-3-1.5-4.5-2.3Z"/>
  </g>
</svg>