<?xml version="1.0" encoding="UTF-8"?>
<svg id="Layer_1" data-name="Layer 1" xmlns="http://www.w3.org/2000/svg" xmlns:xlink="http://www.w3.org/1999/xlink" viewBox="0 0 267.99 258.96">
  <defs>
    <style>
      .cls-1 {
        fill: url(#linear-gradient-2);
      }

      .cls-2 {
        fill: #3c434e;
      }

      .cls-3 {
        fill: url(#linear-gradient);
      }
    </style>
    <linearGradient id="linear-gradient" x1="197.56" y1="28.5" x2="269.16" y2="-38.8" gradientTransform="translate(21.77 -24.75) rotate(82.68) scale(1 -1)" gradientUnits="userSpaceOnUse">
      <stop offset="0" stop-color="#f7f7f7"/>
      <stop offset="1" stop-color="#ea0a8c"/>
    </linearGradient>
    <linearGradient id="linear-gradient-2" x1="252.66" y1="457.53" x2="324.26" y2="390.23" gradientTransform="translate(683.57 -24.75) rotate(97.32)" gradientUnits="userSpaceOnUse">
      <stop offset="0" stop-color="#f7f7f7"/>
      <stop offset="1" stop-color="#ea0a8c"/>
    </linearGradient>
  </defs>
  <path class="cls-2" d="M109.47,39c15.02-1.4,18.23,7.52,28.84,8.09,10.89.58,15.24-8,25.19-8.53,16.43-.87,41.68,13.68,54.29,23.81,16.3,13.08,16.1,13.88,6.03,32.45-38.82,71.58-133.44,70.51-170.08-2.27-6.18-12.27-8.96-15.28,1.61-25.36,11.81-11.26,37.82-26.67,54.11-28.19ZM62.35,72.09h149.91c.95,0,3.47,3.15,4.88-1.38-16.03-9.07-37.66-27.96-57.58-23.43-3.13.71-6.35,4.2-9.77,5.56-18.51,7.4-21.92-5.56-36.52-5.96-17.18-.46-38.4,14.34-50.92,25.2ZM212.96,80.46H65.14l21.81,12.35c27.63,12.31,49.9,16.97,79.98,9.26,15.86-4.07,32.74-12.13,46.02-21.61ZM218.52,87.43c-42.37,25.71-80.47,35.18-127.83,15.59l-29.74-14.88c30.17,69.41,127.7,68.67,157.57-.71Z"/>
  <path class="cls-3" d="M21.96,240.19l12.18-34.43c.63-1.77,3.02-2.04,4.02-.45l3.67,5.8c.94,1.49,3.16,1.37,3.93-.23,4.48-9.28,15.21-35.89,9.73-68.4-.32-1.87,1.66-3.28,3.32-2.35l42.95,24.4c.89.51,1.33,1.55,1.06,2.54-2.06,7.53-12.36,38.44-46.28,56.59-1.31.7-1.56,2.47-.53,3.53l7.14,7.37c1.29,1.33.51,3.56-1.33,3.79l-37.44,4.81c-1.66.21-2.96-1.4-2.41-2.98Z"/>
  <path class="cls-1" d="M250.83,240.19l-12.18-34.43c-.63-1.77-3.02-2.04-4.02-.45l-3.67,5.8c-.94,1.49-3.16,1.37-3.93-.23-4.48-9.28-15.21-35.89-9.73-68.4.32-1.87-1.66-3.28-3.32-2.35l-42.95,24.4c-.89.51-1.33,1.55-1.06,2.54,2.06,7.53,12.36,38.44,46.28,56.59,1.31.7,1.56,2.47.53,3.53l-7.14,7.37c-1.29,1.33-.51,3.56,1.33,3.79l37.44,4.81c1.66.21,2.96-1.4,2.41-2.98Z"/>
</svg>
