<?xml version="1.0" encoding="UTF-8"?>
<svg id="Layer_1" data-name="Layer 1" xmlns="http://www.w3.org/2000/svg" xmlns:xlink="http://www.w3.org/1999/xlink" viewBox="0 0 268.55 258.96">
  <defs>
    <style>
      .cls-1 {
        fill: url(#linear-gradient-2);
      }

      .cls-2 {
        fill: #3c434e;
      }

      .cls-3 {
        fill: url(#linear-gradient);
      }
    </style>
    <linearGradient id="linear-gradient" x1="34.47" y1="229.99" x2="106.07" y2="162.69" gradientUnits="userSpaceOnUse">
      <stop offset="0" stop-color="#f7f7f7"/>
      <stop offset="1" stop-color="#ea0a8c"/>
    </linearGradient>
    <linearGradient id="linear-gradient-2" x1="56.29" y1="229.99" x2="127.89" y2="162.69" gradientTransform="translate(289.4) rotate(-180) scale(1 -1)" gradientUnits="userSpaceOnUse">
      <stop offset="0" stop-color="#f7f7f7"/>
      <stop offset="1" stop-color="#ea0a8c"/>
    </linearGradient>
  </defs>
  <g>
    <path class="cls-2" d="M172.13,32.39c2.88,12.49,3.27,30.24,8.15,41.83,4.24,10.08,17.9,14.51,24.88,24.33,18.88,26.53,5.33,59.39-28.36,58.35l.16-7.54c17.75-2.72,29.09-8.73,27.51-28.58-2.05-25.69-26.03-25.8-33.03-43.86-1.41-3.64-8.8-40.07-8.3-42.15.76-3.13,6.53-2.63,8.98-2.36Z"/>
    <path class="cls-2" d="M106.06,32.32c1.62,1.62-6.17,40.45-8.08,44.98-5.91,13.98-23.12,17.17-29.6,31.92-6.54,14.88-5,29.93,11.12,36.56,8.06,3.32,13.22.08,14.26,11.1-37.21,1.53-48.33-35.59-26.1-62.23,5.86-7.02,17.35-11.54,21.28-18.7,5.78-10.52,4.75-30.37,8.6-42.15l8.52-1.48Z"/>
    <path class="cls-2" d="M186.04,130.74v7.69c-17.27-1.57-26.38,16.73-42.29,18.47-6.14.67-16,.44-22.02-1.06-13.07-3.25-21.69-18.29-37.28-18.3l.08-6.8c22.69-2.65,30.1,20,53.03,18.45,18.86-1.27,27.72-22.41,48.48-18.46Z"/>
  </g>
  <path class="cls-3" d="M99.71,167.93l-32.6,16.47c-1.67.85-1.64,3.25.06,4.04l6.22,2.9c1.6.75,1.76,2.96.28,3.92-8.64,5.62-33.66,19.65-66.6,18.36-1.9-.07-3.05,2.07-1.9,3.59l29.67,39.49c.61.82,1.7,1.12,2.65.73,7.21-3.01,36.56-17.16,50.24-53.11.53-1.38,2.25-1.86,3.43-.98l8.22,6.15c1.48,1.11,3.59.05,3.59-1.8v-37.75c0-1.67-1.77-2.76-3.26-2.01Z"/>
  <path class="cls-1" d="M167.86,167.93l32.6,16.47c1.67.85,1.64,3.25-.06,4.04l-6.22,2.9c-1.6.75-1.76,2.96-.28,3.92,8.64,5.62,33.66,19.65,66.6,18.36,1.9-.07,3.05,2.07,1.9,3.59l-29.67,39.49c-.61.82-1.7,1.12-2.65.73-7.21-3.01-36.56-17.16-50.24-53.11-.53-1.38-2.25-1.86-3.43-.98l-8.22,6.15c-1.48,1.11-3.59.05-3.59-1.8v-37.75c0-1.67,1.77-2.76,3.26-2.01Z"/>
</svg>