<?xml version="1.0" encoding="UTF-8"?>
<svg id="Layer_1" xmlns="http://www.w3.org/2000/svg" version="1.1" xmlns:xlink="http://www.w3.org/1999/xlink" viewBox="0 0 179.1 259">
  <!-- Generator: Adobe Illustrator 29.4.0, SVG Export Plug-In . SVG Version: 2.1.0 Build 152)  -->
  <defs>
    <style>
      .st0 {
        fill: url(#linear-gradient2);
      }

      .st1 {
        fill: #e31956;
      }

      .st2 {
        fill: url(#linear-gradient10);
      }

      .st3 {
        fill: #f7ba49;
      }

      .st4 {
        fill: url(#linear-gradient1);
      }

      .st5 {
        fill: url(#linear-gradient9);
      }

      .st6 {
        fill: url(#linear-gradient8);
      }

      .st7 {
        fill: none;
      }

      .st8 {
        fill: #ef9322;
      }

      .st9 {
        fill: #ea088b;
      }

      .st10 {
        fill: #ee4044;
      }

      .st11 {
        fill: url(#linear-gradient7);
      }

      .st12 {
        fill: #00aaa6;
      }

      .st13 {
        fill: url(#linear-gradient4);
      }

      .st14 {
        fill: url(#linear-gradient5);
      }

      .st15 {
        fill: url(#linear-gradient3);
      }

      .st16 {
        fill: url(#linear-gradient6);
      }

      .st17 {
        fill: url(#linear-gradient);
      }
    </style>
    <linearGradient id="linear-gradient" x1="67.4" y1="121.5" x2="102.8" y2="121.5" gradientUnits="userSpaceOnUse">
      <stop offset="0" stop-color="#e31956"/>
      <stop offset="1" stop-color="#f7ba49"/>
    </linearGradient>
    <linearGradient id="linear-gradient1" x1="73" y1="136.5" x2="86.5" y2="136.5" xlink:href="#linear-gradient"/>
    <linearGradient id="linear-gradient2" x1="81.3" y1="168.4" x2="107.9" y2="168.4" gradientUnits="userSpaceOnUse">
      <stop offset="0" stop-color="#e31956"/>
      <stop offset="1" stop-color="#f7ba49"/>
    </linearGradient>
    <linearGradient id="linear-gradient3" x1="67.4" y1="175.5" x2="86.3" y2="175.5" gradientUnits="userSpaceOnUse">
      <stop offset="0" stop-color="#e31956"/>
      <stop offset="1" stop-color="#f7ba49"/>
    </linearGradient>
    <linearGradient id="linear-gradient4" x1="120.2" y1="182.2" x2="140.5" y2="147.1" gradientUnits="userSpaceOnUse">
      <stop offset="0" stop-color="#00aaa6"/>
      <stop offset=".5" stop-color="#97559a"/>
      <stop offset="1" stop-color="#9a5098"/>
    </linearGradient>
    <linearGradient id="linear-gradient5" x1="31.3" y1="186.1" x2="62.3" y2="132.4" gradientUnits="userSpaceOnUse">
      <stop offset="0" stop-color="#4c3285"/>
      <stop offset="1" stop-color="#f7ba49"/>
    </linearGradient>
    <linearGradient id="linear-gradient6" x1="41.2" y1="193.7" x2="74.1" y2="136.6" gradientUnits="userSpaceOnUse">
      <stop offset=".2" stop-color="#4c3285"/>
      <stop offset="1" stop-color="#f7ba49"/>
    </linearGradient>
    <linearGradient id="linear-gradient7" x1="101" y1="184.8" x2="141.6" y2="114.5" gradientUnits="userSpaceOnUse">
      <stop offset="0" stop-color="#00aaa6"/>
      <stop offset="1" stop-color="#9a5098"/>
    </linearGradient>
    <linearGradient id="linear-gradient8" x1="43" y1="168.7" x2="43" y2="168.7" xlink:href="#linear-gradient5"/>
    <linearGradient id="linear-gradient9" x1="8.7" y1="82.6" x2="85.4" y2="82.6" gradientUnits="userSpaceOnUse">
      <stop offset="0" stop-color="#ea088b"/>
      <stop offset="1" stop-color="#fff"/>
    </linearGradient>
    <linearGradient id="linear-gradient10" x1="2599.7" y1="82.7" x2="2676.5" y2="82.7" gradientTransform="translate(2772.3) rotate(-180) scale(1 -1)" xlink:href="#linear-gradient9"/>
  </defs>
  <g>
    <path class="st9" d="M60.3,225.5v-13c0-.2.1-.3.3-.3h4.3c3.4,0,4.9,1.8,4.9,4.5s-1.6,4.5-4.9,4.5h-1.2v4.3c0,.2-.1.3-.3.3h-2.8c-.2,0-.3-.1-.3-.3ZM64.8,218.2c.9,0,1.8-.2,1.8-1.5s-.9-1.5-1.8-1.5h-1.1v3h1.1Z"/>
    <path class="st9" d="M71.7,225.5v-13c0-.2.1-.3.3-.3h7.1c.2,0,.3.1.3.3v2.4c0,.2-.1.3-.3.3h-4v2.3h3.8c.2,0,.3.1.3.3v2.4c0,.2-.1.3-.3.3h-3.8v2.4h4c.2,0,.3.1.3.3v2.4c0,.2-.1.3-.3.3h-7.1c-.2,0-.3-.1-.3-.3Z"/>
    <path class="st9" d="M80.7,219c0-4,3.2-7,7-7s7,3.1,7,7-3.2,7-7,7-7-3.1-7-7ZM87.8,222.7c2,0,3.6-1.6,3.6-3.7s-1.5-3.7-3.6-3.7-3.6,1.6-3.6,3.7,1.6,3.7,3.6,3.7Z"/>
    <path class="st9" d="M96.9,225.5v-13c0-.2.1-.3.3-.3h4.3c3.4,0,4.9,1.8,4.9,4.5s-1.6,4.5-4.9,4.5h-1.2v4.3c0,.2-.1.3-.3.3h-2.8c-.2,0-.3-.1-.3-.3ZM101.4,218.2c.9,0,1.8-.2,1.8-1.5s-.9-1.5-1.8-1.5h-1.1v3h1.1Z"/>
    <path class="st9" d="M108.2,225.5v-13c0-.2.1-.3.3-.3h2.8c.2,0,.3.1.3.3v10.3h3.8c.2,0,.3.1.3.3v2.4c0,.2-.1.3-.3.3h-6.9c-.2,0-.3-.1-.3-.3Z"/>
    <path class="st9" d="M117.5,225.5v-13c0-.2.1-.3.3-.3h7.1c.2,0,.3.1.3.3v2.4c0,.2-.1.3-.3.3h-4v2.3h3.8c.2,0,.3.1.3.3v2.4c0,.2-.1.3-.3.3h-3.8v2.4h4c.2,0,.3.1.3.3v2.4c0,.2-.1.3-.3.3h-7.1c-.2,0-.3-.1-.3-.3Z"/>
    <path class="st9" d="M26.8,248.9v-13c0-.2.1-.3.3-.3h4.5c4.5,0,7,3,7,6.8s-2.5,6.8-7,6.8h-4.5c-.2,0-.3-.1-.3-.3ZM31.6,246.2c2.3,0,3.6-1.3,3.6-3.8s-1.3-3.8-3.6-3.8h-1.3v7.6h1.3Z"/>
    <path class="st9" d="M40.5,248.9v-13c0-.2.1-.3.3-.3h7.1c.2,0,.3.1.3.3v2.4c0,.2-.1.3-.3.3h-4v2.3h3.8c.2,0,.3.1.3.3v2.4c0,.2-.1.3-.3.3h-3.8v2.4h4c.2,0,.3.1.3.3v2.4c0,.2-.1.3-.3.3h-7.1c-.2,0-.3-.1-.3-.3Z"/>
    <path class="st9" d="M54.1,249l-4.5-13.1c0-.2,0-.3.3-.3h2.9c.2,0,.3,0,.3.2l2.8,9.1,2.8-9.1c0-.2.2-.2.4-.2h2.9c.2,0,.3.1.3.3l-4.5,13.1c0,.2-.2.2-.4.2h-2.9c-.2,0-.3,0-.4-.2Z"/>
    <path class="st9" d="M63.8,248.9v-13c0-.2.1-.3.3-.3h7.1c.2,0,.3.1.3.3v2.4c0,.2-.1.3-.3.3h-4v2.3h3.8c.2,0,.3.1.3.3v2.4c0,.2-.1.3-.3.3h-3.8v2.4h4c.2,0,.3.1.3.3v2.4c0,.2-.1.3-.3.3h-7.1c-.2,0-.3-.1-.3-.3Z"/>
    <path class="st9" d="M73.7,248.9v-13c0-.2.1-.3.3-.3h2.8c.2,0,.3.1.3.3v10.3h3.8c.2,0,.3.1.3.3v2.4c0,.2-.1.3-.3.3h-6.9c-.2,0-.3-.1-.3-.3Z"/>
    <path class="st9" d="M81.7,242.4c0-4,3.2-7,7-7s7,3.1,7,7-3.2,7-7,7-7-3.1-7-7ZM88.7,246.1c2,0,3.6-1.6,3.6-3.7s-1.5-3.7-3.6-3.7-3.6,1.6-3.6,3.7,1.6,3.7,3.6,3.7Z"/>
    <path class="st9" d="M97.8,248.9v-13c0-.2.1-.3.3-.3h4.3c3.4,0,4.9,1.8,4.9,4.5s-1.6,4.5-4.9,4.5h-1.2v4.3c0,.2-.1.3-.3.3h-2.8c-.2,0-.3-.1-.3-.3ZM102.3,241.6c.9,0,1.8-.2,1.8-1.5s-.9-1.5-1.8-1.5h-1.1v3h1.1Z"/>
    <path class="st9" d="M109.1,248.9v-13c0-.2.1-.3.3-.3h3.1c.2,0,.3,0,.4.2l3.6,9.5,3.7-9.5c0-.1.2-.2.3-.2h3.1c.2,0,.3.1.3.3v13c0,.2-.1.3-.3.3h-2.8c-.2,0-.3-.1-.3-.3v-6.8l-.2.8-2.3,6.1c0,.2-.2.3-.4.3h-2.4c-.2,0-.3,0-.4-.3l-2.2-6.1-.2-.8v6.8c0,.2-.1.3-.3.3h-2.8c-.2,0-.3-.1-.3-.3Z"/>
    <path class="st9" d="M126.4,248.9v-13c0-.2.1-.3.3-.3h7.1c.2,0,.3.1.3.3v2.4c0,.2-.1.3-.3.3h-4v2.3h3.8c.2,0,.3.1.3.3v2.4c0,.2-.1.3-.3.3h-3.8v2.4h4c.2,0,.3.1.3.3v2.4c0,.2-.1.3-.3.3h-7.1c-.2,0-.3-.1-.3-.3Z"/>
    <path class="st9" d="M143.9,249l-4.2-7.8v7.7c0,.2-.1.3-.3.3h-2.8c-.2,0-.3-.1-.3-.3v-13c0-.2.1-.3.3-.3h3.2c.2,0,.3,0,.4.2l4.2,7.9v-7.8c0-.2.1-.3.3-.3h2.8c.2,0,.3.1.3.3v13c0,.2-.1.3-.3.3h-3.2c-.2,0-.3,0-.4-.2Z"/>
    <path class="st9" d="M152.7,248.9v-10.3h-2.6c-.2,0-.3-.1-.3-.3v-2.4c0-.2.1-.3.3-.3h8.5c.2,0,.3.1.3.3v2.4c0,.2-.1.3-.3.3h-2.5v10.3c0,.2-.1.3-.3.3h-2.8c-.2,0-.3-.1-.3-.3Z"/>
  </g>
  <path class="st8" d="M75.4,94.8s0,0,.1,0c0,0,0,0-.1,0h0Z"/>
  <g>
    <path class="st17" d="M102.7,156.4c0,.6,0,1.2,0,1.7-6.2-7.9-12-8.7-16.5-7.2.1-1.5.2-3,.2-4.5,0-2.5-.2-4.8-.5-6.9-2.1-12.2-8.9-20.1-11.7-23-.7-.7-1.2-1.1-1.3-1.2,0,0,0,0,0,0-.7-1.4-1.4-2.7-2.1-3.7-5.1-7.5-3.8-28.1-1-26.6,0,0,1.8,17.5,11.5,25.7,9.7,8.1,20.7,15.1,21.4,45.7Z"/>
    <path class="st4" d="M86.5,146.4c0,1.5,0,3-.2,4.5-5.4,1.8-8.9,6.9-8.9,6.9,1.3-5,2.4-9.8,2.7-12.6.7-6.8-2.9-21.2-7.1-29.9,0,0,.5.5,1.3,1.2,2.8,2.9,9.6,10.8,11.7,23,.4,2.1.5,4.5.5,6.9Z"/>
  </g>
  <g>
    <path class="st0" d="M102.8,158.1c1.3,25.3,5.9,27.9,4.9,28.4-1,.5-19-21.3-19-21.3,0,0-3.4,5.9-7.6,12.9l5.1-27.1c4.5-1.5,10.4-.8,16.5,7.2Z"/>
    <path class="st15" d="M86.3,150.9l-5.1,27.1c-5.9,10-13.2,22.1-13.7,22.1-.9,0,4.4-23.5,4.4-23.5,0,0,3-9.8,5.4-18.8,0,0,3.5-5.1,8.9-6.9Z"/>
  </g>
  <circle class="st3" cx="47.3" cy="123.9" r="9"/>
  <circle class="st12" cx="127.2" cy="121.5" r="9"/>
  <circle class="st1" cx="92.7" cy="100" r="9"/>
  <path class="st10" d="M42.3,173.2"/>
  <path class="st13" d="M122.5,136.7s8.2,5.8,14.4,23.4c0,0,3.7,12.5,1.5,32,0,.4-.6.4-.7,0-.7-2-2.1-5.5-4-7.8"/>
  <path class="st14" d="M43,168.2c.7-4.8,5.3-15.8,2.3-21.6-2.5-5-11.6-10.3-14.3-11.8s-.5-.7-.3-1.1h0c.2-.4.8-.6,1.2-.3,13.4,7.9,26.3.9,29.3-1,.4-.3,1,0,1.2.4.8,2.1-.9,5.5-1.4,7-.9,2.5-3.8,4.6-4.7,5.2s-.4.2-.6.1c-5.9-1-4.6,4.8-4.3,6s.1.3.2.4c5.2,5.5,6.4,13.9,6.6,15.3s0,.2.1.3c.7,1.2,5,8.5,3.5,17.9-.8,5.2-5.4,10.6-8.3,14-.3.6,0-13.3.1-14.4.2-2-1.3-2.5-2.5-1.3-2.7,3-4.5,4.8-5.8,6.3s-1.3.3-1.4-.4c-1.6-6.8-1.6-16.4-.9-20.8Z"/>
  <path class="st16" d="M61.3,132.3s0,0,.1-.1c3-2.7,7.5.9,5.6,4.4s-3.9,5.8-7.1,8.2c0,0-4,2.6-1.7,8.1s3.8,11.4,4,12.3,0,.1,0,.2c.4,1.3,5.2,16.9-8.6,34.9-.3.4-1.1.2-1.1-.4,0-3.3.2-10.6.9-14.4,0-.5.3-1.1.6-1.5,1.5-2.1,6.5-9.7,4-17,0,0,0-.2,0-.3-.3-1.2-2.4-10.1-6.3-14.6-.5-.6-.8-1.3-.9-2.1-.2-2,0-5.4,3.8-5.3s2.1-.4,2.8-1.2l2.5-2.8c.7-.8,1-1.9.9-2.9s-.2-1.1-.4-1.6c-.6-1.4-.2-3.1,1-4.1Z"/>
  <path class="st11" d="M115.9,102.7l1-1.4c.4-.6,1.2-.6,1.6-.1h0c.4.4.5,1,.3,1.6-2.1,4.3-10.2,23.3,3.7,34s.9,1,1.1,1.6l5.7,20.3c.2.6.4,1.3.8,1.8,1.2,2,4,7.1,4.2,10.3s-.5,13.6-.5,13.6l-3-4.5s-.4-.6-1.1,0-4.2,10.5-4.3,18.1-.7.7-.9.2l-3.9-9.7c-1.1-2.7-1.7-5.6-1.7-8.6,0-3.5.3-8.3,1.9-11.9,2.9-6.6-1.4-20.9-4-24.7-2.6-3.8-8.6-10.5-6.9-21.4,1.7-10.9,6-19.2,6-19.2Z"/>
  <path class="st6" d="M43,168.7"/>
  <path class="st7" d="M103.2,56.3c0-.1,0-.2,0-.2-.5-1.4-.9-2.7-1.4-4.1-.7-2.4-1.4-4.9-1.5-7.5,0-.8,0-1.7.4-2.4.5-1.3,1.4-2.4,2.4-3.4,1.3-1.2,2.7-2.3,4.1-3.3,1.1-.8,2.2-1.6,3.2-2.3,0,0,.2-.1.3-.2,0,0-.1,0-.1,0-.8,0-1.7,0-2.5,0-.8,0-1.5,0-2.3,0-.6,0-1.1,0-1.7-.1-.8,0-1.6,0-2.4-.2-.9-.1-1.9-.3-2.8-.5-1.1-.2-2.1-.8-2.7-1.8-.5-.7-.9-1.3-1.3-2-1.6-2.9-2.8-5.9-3.9-9.1,0-.1,0-.3-.2-.5,0,.1-.1.2-.1.3-.2.6-.3,1.1-.5,1.7-.7,2.1-1.3,4.2-2,6.3-.4,1.1-.8,2.1-1.5,3.1-.4.6-1,1-1.6,1.3-1.2.4-2.4.5-3.6.6-.7,0-1.4,0-2.1,0-.8,0-1.7,0-2.5,0-.6,0-1.2,0-1.8,0-.9,0-1.7,0-2.6,0-.2,0-.4,0-.7,0,0,0,0,0,0,0,.1,0,.3.2.4.3,2,1.5,4,2.9,5.9,4.4,1.3,1,2.5,2.1,3.5,3.4,1,1.3,1.4,2.8,1.3,4.5,0,.4,0,.7-.1,1.1-.2,1.1-.3,2.1-.6,3.2-.6,2.1-1.2,4.3-1.9,6.4,0,.3-.2.5-.2.8,0,0,0,0,0,0,.2-.1.3-.3.5-.4,1.7-1.5,3.5-2.9,5.4-4.1,1.2-.8,2.5-1.6,3.9-2.1,1.2-.5,2.4-.5,3.6,0,.8.4,1.6.8,2.4,1.2,2.6,1.5,5.1,3.3,7.4,5.2,0,0,.1,0,.2.1Z"/>
  <g>
    <path class="st5" d="M67,62.4c-.3-1.4-.5-2.9-.4-4.5,0-.1,0-.3,0-.4,0-.5,0-1.1.1-1.8,0-.9.2-1.9.4-2.8.2-1,.4-2.4.7-3.8.1-.7.3-1.3.4-2-1.7-1.3-3.4-2.7-5-4.2-2.2-2.1-3.7-3.9-4.9-5.9-.6-1-1.4-2.5-1.8-4.5L8.7,132.9l67.5-63c-2.2,0-4.2-.8-5.8-2.1-2.5-2-3.1-4.6-3.3-5.5Z"/>
    <path class="st2" d="M124.4,33.3c-.5,2.3-1.7,4-2.5,5.2-1.2,1.6-2.6,3.2-4.3,4.7-1.1,1-2.3,2-3.4,2.9h0c.6,2.4,1.2,4.9,1.6,7.4.2,1.4.3,2.7.4,3.8,0,1,.1,2,0,2.9,0,1.2-.3,3-1.1,4.8-1.5,3.4-4.7,5.4-8.5,5.4h-.1c-.3,0-.7,0-1,0l66.9,62.4-48-100.4c0,.2,0,.4-.1.6,0,0,0,.1,0,.2Z"/>
    <path class="st9" d="M102.5,62.9c1.3.6,2.7,1,4.2,1s0,0,0,0c1.2,0,2.1-.5,2.6-1.6.4-.8.5-1.6.5-2.5,0-.7,0-1.3,0-2-.1-1.1-.2-2.3-.4-3.4-.4-2.6-1.1-5.1-1.7-7.6-.2-1-.4-1.9-.7-2.9,0-.2,0-.4.2-.5.3-.2.5-.4.7-.6,1.8-1.5,3.6-3,5.3-4.6,1.2-1.1,2.4-2.3,3.3-3.6.6-.9,1.2-1.8,1.4-2.9,0-.1,0-.2.1-.4,0-.2,0-.3,0-.5,0,0,0-.1,0-.2,0-.7-.3-1.3-.8-1.8-.5-.5-1.1-.9-1.7-1.2-1.3-.6-2.7-.9-4.1-1.1-1.4-.2-2.9-.4-4.3-.5-1.2-.1-2.5-.2-3.7-.2-.6,0-1.1,0-1.7,0s-.2,0-.3,0c0,0,0,0,0,0-.3,0-.4-.1-.5-.4-1.1-2.6-2.2-5.3-3.5-7.8-1-1.9-2-3.8-3.4-5.5-.5-.7-1.1-1.3-1.8-1.8-.5-.4-1.1-.6-1.7-.6s-.5,0-.7.1c-.7.2-1.2.6-1.7,1.1-1,1-1.7,2.2-2.4,3.4-1.2,2.2-2.1,4.5-2.9,6.8-.4,1.2-.8,2.4-1.1,3.7,0,.1,0,.3-.2.3s0,0,0,0c0,0-.1,0-.2,0-.2,0-.4,0-.6,0-.5,0-1.1,0-1.6,0-.9,0-1.7,0-2.6,0-.8,0-1.6,0-2.5.1-1,0-2,.2-3,.3-1.5.2-2.9.4-4.3.9-1.1.4-2,.8-2.8,1.6-.7.8-1,1.7-.9,2.8.1.9.5,1.7,1,2.5,1,1.7,2.4,3.2,3.8,4.5,2.3,2.2,4.9,4.2,7.6,5.9.1,0,.2.2.1.3-.2.7-.4,1.5-.5,2.2-.3,1.3-.6,2.5-.8,3.8-.2,1.2-.5,2.4-.7,3.6-.1.8-.2,1.6-.3,2.3,0,.6,0,1.3,0,1.9,0,.9,0,1.8.2,2.8.2.7.4,1.4,1,1.8.7.5,1.4.7,2.2.7s.4,0,.5,0c1.2-.1,2.3-.5,3.3-1,2.2-1,4.3-2.3,6.3-3.7,1.4-1,2.8-2,4.1-2.9,0,0,.1,0,.2,0s.1,0,.2,0c1.7,1.3,3.4,2.6,5.2,3.8,1.9,1.3,3.9,2.5,6.1,3.4ZM93.2,49.7c-.6-.3-1.2-.4-1.8-.4s-1.2.1-1.8.3c-1.4.5-2.6,1.3-3.9,2.1-1.9,1.3-3.7,2.7-5.4,4.1-.2.1-.3.3-.5.4,0,0,0,0,0,0,0-.3.2-.5.2-.8.6-2.1,1.3-4.3,1.9-6.4.3-1,.4-2.1.6-3.2,0-.4.1-.7.1-1.1.1-1.7-.3-3.2-1.3-4.5-1-1.3-2.2-2.4-3.5-3.4-2-1.5-3.9-3-5.9-4.4-.1,0-.3-.2-.4-.3,0,0,0,0,0,0,.2,0,.4,0,.7,0,.9,0,1.7,0,2.6,0,.6,0,1.2,0,1.8,0,.8,0,1.7,0,2.5,0,.7,0,1.4,0,2.1,0,1.2,0,2.4-.2,3.6-.6.7-.2,1.2-.6,1.6-1.3.6-1,1.1-2,1.5-3.1.7-2.1,1.4-4.2,2-6.3.2-.6.3-1.1.5-1.7,0,0,0-.2.1-.3,0,.2.1.3.2.5,1,3.1,2.3,6.2,3.9,9.1.4.7.9,1.4,1.3,2,.7,1,1.6,1.5,2.7,1.8.9.2,1.9.4,2.8.5.8.1,1.6.1,2.4.2.6,0,1.1,0,1.7.1.8,0,1.5,0,2.3,0,.8,0,1.7,0,2.5,0,0,0,0,0,.1,0-.1,0-.2.2-.3.2-1.1.8-2.1,1.6-3.2,2.3-1.4,1-2.9,2-4.1,3.3-1,1-1.9,2.1-2.4,3.4-.3.8-.4,1.6-.4,2.4,0,2.6.7,5.1,1.5,7.5.4,1.4.9,2.7,1.4,4.1,0,0,0,.1,0,.2-.1,0-.2,0-.2-.1-2.3-1.9-4.8-3.7-7.4-5.2-.8-.5-1.6-.8-2.4-1.2Z"/>
  </g>
</svg>