<?xml version="1.0" encoding="UTF-8"?>
<svg id="Layer_1" data-name="Layer 1" xmlns="http://www.w3.org/2000/svg" viewBox="0 0 268.55 258.96">
  <defs>
    <style>
      .cls-1 {
        fill: #fff;
      }
    </style>
  </defs>
  <path class="cls-1" d="M202.92,11.54c-5.14,0-9.07,4.23-8.77,9.37v1.81l3.33,15.42c-18.14-12.4-40.22-20.56-63.51-20.56-63.2,0-114.61,51.41-114.61,114.92s51.41,114.92,114.92,114.92,114.92-51.41,114.92-114.92c0-4.84-4.23-9.07-9.07-9.07s-9.07,4.23-9.07,9.07c0,53.53-43.25,96.77-96.77,96.77s-96.77-43.25-96.77-96.77,43.25-96.77,96.77-96.77,40.22,8.17,56.55,19.96l-21.47,1.51c-5.14,0-9.07,3.93-9.07,9.07s3.93,9.07,9.07,9.07h1.21l42.34-3.02c5.14-.3,8.77-4.84,8.47-9.68v-1.21l-9.07-42.34c-.91-4.23-4.84-7.56-9.07-7.26l-.3-.3Z"/>
</svg>